<svg xmlns="http://www.w3.org/2000/svg" viewBox="0 0 614 306">
  <defs>
    <style>
      .a, .c {
        fill: #333;
      }

      .b {
        fill: #bde4eb;
      }

      .c, .d {
        fill-rule: evenodd;
      }

      .d, .e {
        fill: #666;
      }
    </style>
  </defs>
  <title>       </title>
  <g>
    <rect class="a" x="233" y="277" width="148" height="3" rx="1.5" ry="1.5"/>
    <rect class="b" x="44" y="20" width="526" height="252"/>
    <g>
      <path d="M272.957,153.055c.172,1.18,1.3,1.93,2.9,1.93,1.516,0,2.633-.82,2.633-1.937,0-.961-.7-1.57-2.258-1.961l-1.445-.375c-2.039-.516-2.922-1.437-2.922-3.039,0-1.914,1.6-3.211,3.984-3.211,2.18,0,3.8,1.3,3.922,3.117h-1.414a2.311,2.311,0,0,0-2.555-1.844c-1.5,0-2.492.75-2.492,1.891,0,.883.617,1.391,2.172,1.789l1.18.313c2.336.586,3.273,1.492,3.273,3.148,0,2.07-1.633,3.391-4.211,3.391-2.391,0-4.039-1.266-4.187-3.211Z"/>
      <path d="M281.6,153.641c0-1.508,1.109-2.375,3.07-2.492L287.1,151v-.766c0-1.039-.648-1.609-1.906-1.609-1.008,0-1.711.383-1.9,1.047h-1.359c.18-1.352,1.508-2.242,3.3-2.242,2.055,0,3.2,1.055,3.2,2.8V156H287.16v-1.242h-.125a2.91,2.91,0,0,1-2.594,1.391A2.561,2.561,0,0,1,281.6,153.641Zm5.5-.781v-.773l-2.266.148c-1.281.086-1.844.531-1.844,1.375,0,.859.727,1.359,1.7,1.359A2.215,2.215,0,0,0,287.1,152.859Z"/>
      <path d="M291.488,148.7h-1.4v-1.125h1.4v-.937a2.181,2.181,0,0,1,2.445-2.484,4.719,4.719,0,0,1,.906.078v1.094a3.7,3.7,0,0,0-.633-.039c-.969,0-1.375.469-1.375,1.391v.9h1.93V148.7h-1.93V156h-1.344Z"/>
      <path d="M303.285,153.82a3.367,3.367,0,0,1-3.547,2.328c-2.336,0-3.8-1.687-3.8-4.352,0-2.648,1.484-4.367,3.8-4.367,2.273,0,3.656,1.617,3.656,4.234v.516H297.34v.063c.07,1.664,1,2.719,2.43,2.719a2.182,2.182,0,0,0,2.172-1.141Zm-5.945-2.727h4.641a2.267,2.267,0,0,0-2.258-2.477A2.4,2.4,0,0,0,297.34,151.094Z"/>
      <path d="M316.387,152.773H311.9L310.77,156h-1.477l4.156-11.273h1.391L319,156H317.52Zm-4.07-1.2h3.656l-1.766-5.031h-.125Z"/>
      <path d="M320.8,147.578h1.281v1.25h.125a2.351,2.351,0,0,1,2.336-1.4,5.771,5.771,0,0,1,.672.039v1.344a5.4,5.4,0,0,0-.859-.078,2.063,2.063,0,0,0-2.211,2.047V156H320.8Z"/>
      <path d="M333.582,153.82a3.367,3.367,0,0,1-3.547,2.328c-2.336,0-3.8-1.687-3.8-4.352,0-2.648,1.484-4.367,3.8-4.367,2.273,0,3.656,1.617,3.656,4.234v.516h-6.055v.063c.07,1.664,1,2.719,2.43,2.719a2.182,2.182,0,0,0,2.172-1.141Zm-5.945-2.727h4.641a2.267,2.267,0,0,0-2.258-2.477A2.4,2.4,0,0,0,327.637,151.094Z"/>
      <path d="M335.3,153.641c0-1.508,1.109-2.375,3.07-2.492L340.8,151v-.766c0-1.039-.648-1.609-1.906-1.609-1.008,0-1.711.383-1.9,1.047h-1.359c.18-1.352,1.508-2.242,3.3-2.242,2.055,0,3.2,1.055,3.2,2.8V156h-1.281v-1.242h-.125a2.91,2.91,0,0,1-2.594,1.391A2.561,2.561,0,0,1,335.3,153.641Zm5.5-.781v-.773l-2.266.148c-1.281.086-1.844.531-1.844,1.375,0,.859.727,1.359,1.7,1.359A2.215,2.215,0,0,0,340.8,152.859Z"/>
    </g>
    <g>
      <path class="c" d="M141,1H55.909c-10.951,0-19.564.686-27.97,3.948A39.927,39.927,0,0,0,12.878,14.9,42.272,42.272,0,0,0,2.308,33.957C.477,40.79,0,46.757,0,55.74V250.26c0,8.983.477,14.95,2.308,21.783A42.272,42.272,0,0,0,12.878,291.1a39.924,39.924,0,0,0,15.062,9.948C36.346,304.314,44.958,305,55.909,305H83v1h24v-1h20v1h45v-1h11v1h45v-1H558.091c10.952,0,19.564-.686,27.97-3.948a39.926,39.926,0,0,0,15.062-9.948,42.282,42.282,0,0,0,10.57-19.061c1.831-6.833,2.308-12.8,2.308-21.783V55.74c0-8.983-.477-14.95-2.308-21.783A42.282,42.282,0,0,0,601.122,14.9,39.929,39.929,0,0,0,586.06,4.948C577.655,1.686,569.043,1,558.091,1H213V0H141ZM562.154,20c6.629,0,11.842.413,16.929,2.378a24.174,24.174,0,0,1,9.117,5.993,25.438,25.438,0,0,1,6.4,11.482A47.049,47.049,0,0,1,596,53V253a47.049,47.049,0,0,1-1.4,13.147,25.438,25.438,0,0,1-6.4,11.482,24.174,24.174,0,0,1-9.117,5.993C574,285.587,568.783,286,562.154,286H51.846c-6.629,0-11.842-.413-16.929-2.378a24.174,24.174,0,0,1-9.117-5.993,25.438,25.438,0,0,1-6.4-11.482A47.049,47.049,0,0,1,18,253s-.005-19.589-.005-20.934a6.912,6.912,0,0,1,.206-1.935,3.746,3.746,0,0,1,.943-1.693,3.564,3.564,0,0,1,1.344-.884,6.481,6.481,0,0,1,2.369-.348.6.6,0,0,1,.143-.034,15.762,15.762,0,0,0,6.882-1.321,15.026,15.026,0,0,0,4.908-3.434,14.522,14.522,0,0,0,3.557-6.373A24.408,24.408,0,0,0,39,209.06V97.154a24.409,24.409,0,0,0-.654-6.985A14.519,14.519,0,0,0,34.79,83.8a15.022,15.022,0,0,0-4.908-3.434A16.041,16.041,0,0,0,23,78.827a.6.6,0,0,1-.143-.034,6.481,6.481,0,0,1-2.369-.348,3.564,3.564,0,0,1-1.344-.884,3.746,3.746,0,0,1-.943-1.693A6.443,6.443,0,0,1,18,74V53a47.049,47.049,0,0,1,1.4-13.147,25.438,25.438,0,0,1,6.4-11.482,24.174,24.174,0,0,1,9.117-5.993C40,20.413,45.217,20,51.846,20Z"/>
      <g>
        <path class="d" d="M22,170.576V137.424A2.35,2.35,0,0,1,24.268,135h.463A2.35,2.35,0,0,1,27,137.424v33.152A2.35,2.35,0,0,1,24.732,173h-.463A2.35,2.35,0,0,1,22,170.576Z"/>
        <rect class="e" x="20" y="115.5" width="9" height="9" rx="4.405" ry="4.405"/>
      </g>
    </g>
  </g>
</svg>
