<svg xmlns="http://www.w3.org/2000/svg" viewBox="0 0 306 614">
  <defs>
    <style>
      .a {
        fill: #bde4eb;
      }

      .b, .e {
        fill: #333;
      }

      .b, .c {
        fill-rule: evenodd;
      }

      .c, .d {
        fill: #666;
      }
    </style>
  </defs>
  <title>       </title>
  <g>
    <rect class="a" x="14" y="49" width="278" height="522"/>
    <g>
      <path class="b" d="M305,141V55.909c0-10.951-.686-19.564-3.948-27.97A39.927,39.927,0,0,0,291.1,12.878a42.272,42.272,0,0,0-19.061-10.57C265.21.477,259.243,0,250.26,0H55.74C46.757,0,40.79.477,33.957,2.308A42.272,42.272,0,0,0,14.9,12.878,39.924,39.924,0,0,0,4.948,27.94C1.686,36.346,1,44.958,1,55.909V83H0v24H1v20H0v45H1v11H0v45H1V558.091c0,10.952.686,19.564,3.948,27.97A39.926,39.926,0,0,0,14.9,601.122a42.282,42.282,0,0,0,19.061,10.57C40.79,613.523,46.757,614,55.74,614H250.26c8.983,0,14.95-.477,21.783-2.308a42.282,42.282,0,0,0,19.061-10.57,39.929,39.929,0,0,0,9.948-15.062c3.262-8.405,3.948-17.018,3.948-27.97V213h1V141ZM286,562.154c0,6.629-.413,11.842-2.378,16.929a24.174,24.174,0,0,1-5.993,9.117,25.438,25.438,0,0,1-11.482,6.4A47.049,47.049,0,0,1,253,596H53a47.049,47.049,0,0,1-13.147-1.4,25.438,25.438,0,0,1-11.482-6.4,24.174,24.174,0,0,1-5.993-9.117C20.413,574,20,568.783,20,562.154V51.846c0-6.629.413-11.842,2.378-16.929A24.174,24.174,0,0,1,28.371,25.8a25.438,25.438,0,0,1,11.482-6.4A47.049,47.049,0,0,1,53,18l20.934-.005a6.912,6.912,0,0,1,1.935.206,3.746,3.746,0,0,1,1.693.943,3.564,3.564,0,0,1,.884,1.344,6.481,6.481,0,0,1,.348,2.369.6.6,0,0,1,.034.143,15.762,15.762,0,0,0,1.321,6.882,15.026,15.026,0,0,0,3.434,4.908,14.522,14.522,0,0,0,6.373,3.557A24.408,24.408,0,0,0,96.94,39H208.846a24.409,24.409,0,0,0,6.985-.654A14.519,14.519,0,0,0,222.2,34.79a15.022,15.022,0,0,0,3.434-4.908A16.041,16.041,0,0,0,227.173,23a.6.6,0,0,1,.034-.143,6.481,6.481,0,0,1,.348-2.369,3.564,3.564,0,0,1,.884-1.344,3.746,3.746,0,0,1,1.693-.943A6.443,6.443,0,0,1,232,18h21a47.049,47.049,0,0,1,13.147,1.4,25.438,25.438,0,0,1,11.482,6.4,24.174,24.174,0,0,1,5.993,9.117C285.587,40,286,45.217,286,51.846Z"/>
      <g>
        <path class="c" d="M135.424,22h33.152A2.35,2.35,0,0,1,171,24.268v.463A2.35,2.35,0,0,1,168.576,27H135.424A2.35,2.35,0,0,1,133,24.732v-.463A2.35,2.35,0,0,1,135.424,22Z"/>
        <rect class="d" x="181.5" y="20" width="9" height="9" rx="4.405" ry="4.405"/>
      </g>
    </g>
    <rect class="e" x="106" y="587" width="95" height="3" rx="1.5" ry="1.5"/>
    <g>
      <path d="M118.957,306.764c.172,1.18,1.3,1.93,2.9,1.93,1.516,0,2.633-.82,2.633-1.937,0-.961-.7-1.57-2.258-1.961l-1.445-.375c-2.039-.516-2.922-1.437-2.922-3.039,0-1.914,1.6-3.211,3.984-3.211,2.18,0,3.8,1.3,3.922,3.117h-1.414a2.311,2.311,0,0,0-2.555-1.844c-1.5,0-2.492.75-2.492,1.891,0,.883.617,1.391,2.172,1.789l1.18.313c2.336.586,3.273,1.492,3.273,3.148,0,2.07-1.633,3.391-4.211,3.391-2.391,0-4.039-1.266-4.187-3.211Z"/>
      <path d="M127.6,307.35c0-1.508,1.109-2.375,3.07-2.492l2.43-.148v-.766c0-1.039-.648-1.609-1.906-1.609-1.008,0-1.711.383-1.9,1.047h-1.359c.18-1.352,1.508-2.242,3.3-2.242,2.055,0,3.2,1.055,3.2,2.8v5.766H133.16v-1.242h-.125a2.91,2.91,0,0,1-2.594,1.391A2.561,2.561,0,0,1,127.6,307.35Zm5.5-.781v-.773l-2.266.148c-1.281.086-1.844.531-1.844,1.375,0,.859.727,1.359,1.7,1.359A2.215,2.215,0,0,0,133.1,306.568Z"/>
      <path d="M137.488,302.412h-1.4v-1.125h1.4v-.937a2.181,2.181,0,0,1,2.445-2.484,4.719,4.719,0,0,1,.906.078v1.094a3.7,3.7,0,0,0-.633-.039c-.969,0-1.375.469-1.375,1.391v.9h1.93v1.125h-1.93v7.3h-1.344Z"/>
      <path d="M149.285,307.529a3.367,3.367,0,0,1-3.547,2.328c-2.336,0-3.8-1.687-3.8-4.352,0-2.648,1.484-4.367,3.8-4.367,2.273,0,3.656,1.617,3.656,4.234v.516H143.34v.063c.07,1.664,1,2.719,2.43,2.719a2.182,2.182,0,0,0,2.172-1.141ZM143.34,304.8h4.641a2.267,2.267,0,0,0-2.258-2.477A2.4,2.4,0,0,0,143.34,304.8Z"/>
      <path d="M162.387,306.482H157.9l-1.133,3.227h-1.477l4.156-11.273h1.391L165,309.709H163.52Zm-4.07-1.2h3.656l-1.766-5.031h-.125Z"/>
      <path d="M166.8,301.287h1.281v1.25h.125a2.351,2.351,0,0,1,2.336-1.4,5.771,5.771,0,0,1,.672.039v1.344a5.4,5.4,0,0,0-.859-.078,2.063,2.063,0,0,0-2.211,2.047v5.219H166.8Z"/>
      <path d="M179.582,307.529a3.367,3.367,0,0,1-3.547,2.328c-2.336,0-3.8-1.687-3.8-4.352,0-2.648,1.484-4.367,3.8-4.367,2.273,0,3.656,1.617,3.656,4.234v.516h-6.055v.063c.07,1.664,1,2.719,2.43,2.719a2.182,2.182,0,0,0,2.172-1.141Zm-5.945-2.727h4.641a2.267,2.267,0,0,0-2.258-2.477A2.4,2.4,0,0,0,173.637,304.8Z"/>
      <path d="M181.3,307.35c0-1.508,1.109-2.375,3.07-2.492l2.43-.148v-.766c0-1.039-.648-1.609-1.906-1.609-1.008,0-1.711.383-1.9,1.047h-1.359c.18-1.352,1.508-2.242,3.3-2.242,2.055,0,3.2,1.055,3.2,2.8v5.766h-1.281v-1.242h-.125a2.91,2.91,0,0,1-2.594,1.391A2.561,2.561,0,0,1,181.3,307.35Zm5.5-.781v-.773l-2.266.148c-1.281.086-1.844.531-1.844,1.375,0,.859.727,1.359,1.7,1.359A2.215,2.215,0,0,0,186.8,306.568Z"/>
    </g>
  </g>
</svg>
